<svg xmlns="http://www.w3.org/2000/svg" viewBox="0 0 1990 1372">
  <path fill="#19223C" fill-rule="nonzero" d="M593.5 41c70.6 34.2 132.3 85.6 185.7 136.2 77.7 73.6 149.5 155.3 244.7 212.4 91.9 55 197 99.7 300.2 135.2 239 81.9 685.4 128.2 665.5 436.2-8 121.6-112.4 214.6-221 279.3-122 72.5-261.3 130.5-408 131.5-223.6 1.5-373.3-142.3-417.3-326.4-21.2-88.6 10.8-183 36.9-268.8 24.7-81.8 130-305.5 35.5-376.5-79.4-59.7-234.7-12.4-321.8 6-127.2 26.9-251 64.2-382.7 71.5-201.5 11-231.4-235.2-150.4-351.6C219.7 41.9 332-6 444.8.6A392.8 392.8 0 0 1 593.6 41h-.1Z"/>
</svg>
